<svg xmlns="http://www.w3.org/2000/svg" version="1.1" xmlns:xlink="http://www.w3.org/1999/xlink" xmlns:svgjs="http://svgjs.dev/svgjs" width="1000" height="1000" viewBox="0 0 1000 1000"><rect width="1000" height="1000" fill="#ffffff"></rect><g transform="matrix(0.7,0,0,0.7,149.57575757575756,282.1265587044535)"><svg viewBox="0 0 396 247" data-background-color="#ffffff" preserveAspectRatio="xMidYMid meet" height="623" width="1000" xmlns="http://www.w3.org/2000/svg" xmlns:xlink="http://www.w3.org/1999/xlink"><g id="tight-bounds" transform="matrix(1,0,0,1,0.2400000000000091,-0.09999999999999432)"><svg viewBox="0 0 395.52 247.2" height="247.2" width="395.52"><g><svg></svg></g><g><svg viewBox="0 0 395.52 247.2" height="247.2" width="395.52"><g transform="matrix(1,0,0,1,39.55199999999999,102.3607676898223)"><svg viewBox="0 0 316.416 42.47846462035541" height="42.47846462035541" width="316.416"><g><svg viewBox="0 0 316.416 42.47846462035541" height="42.47846462035541" width="316.416"><g><svg viewBox="0 0 316.416 42.47846462035541" height="42.47846462035541" width="316.416"><g><svg viewBox="0 0 316.416 42.47846462035541" height="42.47846462035541" width="316.416"><g id="textblocktransform"><svg viewBox="0 0 316.416 42.47846462035541" height="42.47846462035541" width="316.416" id="textblock"><g><svg viewBox="0 0 316.416 42.47846462035541" height="42.47846462035541" width="316.416"><g transform="matrix(1,0,0,1,0,0)"><svg width="316.416" viewBox="0.800000011920929 -41 309.4800109863281 41.54999923706055" height="42.47846462035541" data-palette-color="#ec9131"><path d="M13.85-3.85L13.85-33.45 7.6-33.2 5.5-22.05 0.8-22.05 1.6-37.15 34.55-37.15 35.2-22.05 30.75-22.05 28.55-33.2 22.5-33.45 22.5-3.85 29.45-3.3 29.45 0 7.5 0 7.5-3.3 13.85-3.85ZM51.25 0.55Q44.4 0.55 41.1-3.33 37.8-7.2 37.8-13.9L37.8-13.9Q37.8-18.45 39.5-21.75 41.2-25.05 44.27-26.78 47.35-28.5 51.5-28.5L51.5-28.5Q56.75-28.5 59.52-25.85 62.3-23.2 62.4-18.35L62.4-18.35Q62.4-15.15 61.95-13.2L61.95-13.2 46.3-13.2Q46.55-8.95 48.37-6.73 50.2-4.5 53.5-4.5L53.5-4.5Q55.35-4.5 57.37-5.13 59.4-5.75 60.65-6.55L60.65-6.55 62.05-3.5Q60.75-2.05 57.62-0.75 54.5 0.55 51.25 0.55L51.25 0.55ZM46.25-16.5L54.45-16.5 54.5-18.6Q54.5-21.75 53.65-23.4 52.8-25.05 50.75-25.05L50.75-25.05Q48.65-25.05 47.5-23.23 46.35-21.4 46.25-16.5L46.25-16.5ZM65.5-13.7Q65.5-18.15 67.3-21.5 69.1-24.85 72.35-26.68 75.6-28.5 79.85-28.5L79.85-28.5Q81.95-28.5 83.47-28.23 85-27.95 86.6-27.45L86.6-27.45Q88.05-27.05 88.4-27L88.4-27 88.05-17.95 83-17.95 81.7-23.7Q81.55-24.35 80.87-24.63 80.2-24.9 79.25-24.9L79.25-24.9Q76.9-24.9 75.57-22.6 74.25-20.3 74.25-14.95L74.25-14.95Q74.25-9.85 75.92-7.13 77.6-4.4 80.45-4.4L80.45-4.4Q84.15-4.4 87.25-6.3L87.25-6.3 88.6-3.35Q87.4-2 84.65-0.73 81.9 0.55 78.55 0.55L78.55 0.55Q72 0.55 68.75-3.33 65.5-7.2 65.5-13.7L65.5-13.7ZM94.44-3.75L94.44-36.1 90.89-36.75 90.89-39.8 100.94-41 101.09-41 102.54-39.95 102.59-29.1 102.19-24.65Q103.74-26.1 106.29-27.23 108.84-28.35 111.89-28.35L111.89-28.35Q115.04-28.35 116.79-27.2 118.54-26.05 119.24-23.7 119.94-21.35 119.94-17.45L119.94-17.45 119.94-3.75 122.99-3.3 122.99 0 109.09 0 109.09-3.3 111.74-3.75 111.74-17.4Q111.74-20.9 110.99-22.28 110.24-23.65 107.94-23.65L107.94-23.65Q106.54-23.65 105.14-23.03 103.74-22.4 102.79-21.5L102.79-21.5 102.79-3.75 105.54-3.3 105.54 0 91.84 0 91.84-3.3 94.44-3.75ZM154.74 0.55Q146.09 0.55 141.59-4.48 137.09-9.5 137.09-18.25L137.09-18.25Q137.09-24.15 139.49-28.53 141.89-32.9 146.09-35.23 150.29-37.55 155.59-37.55L155.59-37.55Q157.69-37.55 159.64-37.33 161.59-37.1 164.34-36.7L164.34-36.7Q166.49-36.35 167.29-36.3L167.29-36.3 166.69-25.15 161.34-25.15 159.64-32.8Q158.54-34 155.04-34L155.04-34Q151.19-34 148.96-30.18 146.74-26.35 146.74-18.95L146.74-18.95Q146.74-11.75 148.91-7.4 151.09-3.05 155.24-3.05L155.24-3.05Q157.29-3.05 158.36-3.45 159.44-3.85 160.19-4.6L160.19-4.6 162.44-9.95 167.34-9.5 166.44-1.35Q164.99-1.25 162.89-0.6L162.89-0.6Q160.89-0.05 159.11 0.25 157.34 0.55 154.74 0.55L154.74 0.55ZM171.14-13.75Q171.14-18.55 173.04-21.88 174.94-25.2 178.16-26.85 181.39-28.5 185.24-28.5L185.24-28.5Q191.54-28.5 195.11-24.73 198.69-20.95 198.69-14.2L198.69-14.2Q198.69-9.25 196.79-5.95 194.89-2.65 191.69-1.05 188.49 0.55 184.54 0.55L184.54 0.55Q178.29 0.55 174.71-3.23 171.14-7 171.14-13.75L171.14-13.75ZM185.04-2.95Q187.44-2.95 188.61-5.53 189.79-8.1 189.79-13.6L189.79-13.6Q189.79-19.45 188.66-22.23 187.54-25 184.89-25L184.89-25Q179.99-25 179.99-14.35L179.99-14.35Q179.99-8.55 181.19-5.75 182.39-2.95 185.04-2.95L185.04-2.95ZM203.13 0L203.13-3.3 206.18-3.75 206.18-22.55 203.23-23.45 203.23-27.35 211.53-28.45 211.68-28.45 213.08-27.4 213.08-26.2 212.93-22.05 213.08-22.05Q213.43-23.2 214.68-24.73 215.93-26.25 217.86-27.38 219.78-28.5 222.03-28.5L222.03-28.5Q223.33-28.5 224.03-28.15L224.03-28.15 224.03-19.45Q223.23-20.05 222.31-20.4 221.38-20.75 219.93-20.75L219.93-20.75Q218.13-20.75 216.68-20.28 215.23-19.8 214.38-19.2L214.38-19.2 214.38-3.75 219.88-3.25 219.88 0 203.13 0ZM229.88-3.75L229.88-22.55 226.93-23.45 226.93-27.35 236.03-28.45 236.18-28.45 237.48-27.4 237.48-25.55 237.43-24.4Q239.18-26.05 241.88-27.2 244.58-28.35 247.53-28.35L247.53-28.35Q250.53-28.35 252.26-27.28 253.98-26.2 254.76-23.85 255.53-21.5 255.53-17.45L255.53-17.45 255.53-3.75 258.33-3.35 258.33 0 244.73 0 244.73-3.3 247.18-3.75 247.18-17.4Q247.18-19.8 246.86-21.13 246.53-22.45 245.73-23.05 244.93-23.65 243.43-23.65L243.43-23.65Q241.13-23.65 238.23-21.5L238.23-21.5 238.23-3.75 240.98-3.3 240.98 0 227.13 0 227.13-3.3 229.88-3.75ZM274.53 0.55Q267.68 0.55 264.38-3.33 261.08-7.2 261.08-13.9L261.08-13.9Q261.08-18.45 262.78-21.75 264.48-25.05 267.55-26.78 270.63-28.5 274.78-28.5L274.78-28.5Q280.03-28.5 282.8-25.85 285.58-23.2 285.68-18.35L285.68-18.35Q285.68-15.15 285.23-13.2L285.23-13.2 269.58-13.2Q269.83-8.95 271.65-6.73 273.48-4.5 276.78-4.5L276.78-4.5Q278.63-4.5 280.65-5.13 282.68-5.75 283.93-6.55L283.93-6.55 285.33-3.5Q284.03-2.05 280.9-0.75 277.78 0.55 274.53 0.55L274.53 0.55ZM269.53-16.5L277.73-16.5 277.78-18.6Q277.78-21.75 276.93-23.4 276.08-25.05 274.03-25.05L274.03-25.05Q271.93-25.05 270.78-23.23 269.63-21.4 269.53-16.5L269.53-16.5ZM289.38 0L289.38-3.3 292.43-3.75 292.43-22.55 289.48-23.45 289.48-27.35 297.78-28.45 297.93-28.45 299.33-27.4 299.33-26.2 299.18-22.05 299.33-22.05Q299.68-23.2 300.93-24.73 302.18-26.25 304.1-27.38 306.03-28.5 308.28-28.5L308.28-28.5Q309.58-28.5 310.28-28.15L310.28-28.15 310.28-19.45Q309.48-20.05 308.55-20.4 307.63-20.75 306.18-20.75L306.18-20.75Q304.38-20.75 302.93-20.28 301.48-19.8 300.63-19.2L300.63-19.2 300.63-3.75 306.13-3.25 306.13 0 289.38 0Z" opacity="1" transform="matrix(1,0,0,1,0,0)" fill="#ec9131" class="undefined-text-0" data-fill-palette-color="primary" id="text-0"></path></svg></g></svg></g></svg></g></svg></g></svg></g></svg></g></svg></g><g mask="url(#40cd9ab1-cfa4-49ee-bc18-9c7c61300dff)"><g transform="matrix(3.1844155844155844, 0, 0, 3.1844155844155844, 58.60104867910408, 1)"><svg xmlns="http://www.w3.org/2000/svg" xmlns:xlink="http://www.w3.org/1999/xlink" version="1.1" x="0" y="0" viewBox="6.300000190734863 11.5 87.39999389648438 77" style="enable-background:new 0 0 100 100;" xml:space="preserve" height="77" width="87.39999389648438" class="icon-none" data-fill-palette-color="accent" id="none"><path d="M72.3 12.3L72.3 12.3 72.3 12.3l-0.4-0.8H28.2L6.3 50l21.8 38.5h43.7L93.7 50 72.3 12.3zM33.3 25.3L9.9 47.7l18.6-32.8L33.3 25.3zM70.7 14.8l6.4 35.7L36.9 25.8 70.7 14.8zM35.5 27.3l41 25.2-41 23.3V27.3zM77 54.5l-7.2 30.8-32.6-8.1L77 54.5zM33.5 75L9.9 50.5l23.6-22.7V75zM33.2 77.6l-4.6 7.7L11.5 55.1 33.2 77.6zM35 78.6l31.4 7.9H30.2L35 78.6zM79.3 53.3l11.6-2.5L72.1 84 79.3 53.3zM90.7 48.9l-11.4 2.5-5.9-33.1L90.7 48.9zM35 24.3l-5-10.8h38.2L35 24.3z" fill="#98d3df" data-fill-palette-color="accent"></path></svg></g></g></svg></g><defs><mask id="40cd9ab1-cfa4-49ee-bc18-9c7c61300dff"><rect width="640" height="400" fill="white"></rect><rect width="348.05760000000004" height="62.53475664778546" fill="black" y="92.33262167610727" x="23.731199999999973" id="transform-me"></rect></mask></defs></svg><rect width="395.52" height="247.2" fill="none" stroke="none" visibility="hidden"></rect></g></svg></g></svg>